<svg xmlns="http://www.w3.org/2000/svg" viewBox="0 0 150 150">
  <path fill="#1c3aa9" d="M117 62.06q0-.9-.04-1.8V26.28l-9.4 9.4a41.9 41.9 0 0 0-32.5-15.43 41.9 41.9 0 0 0-33.4 16.6l15.4 15.56a20.4 20.4 0 0 1 6.23-7c2.7-2.1 6.5-3.81 11.77-3.81q.95 0 1.5.21a20.3 20.3 0 0 1 15.52 9.35l-10.9 10.9c13.8-.05 29.4-.08 35.82.01"/>
  <path fill="#4285f4" d="M74.82 20.25q-.9 0-1.8.04H39.03l9.4 9.4A41.9 41.9 0 0 0 33 62.19a41.9 41.9 0 0 0 16.6 33.4l15.56-15.4a20.4 20.4 0 0 1-7-6.24c-2.1-2.69-3.82-6.5-3.82-11.77q0-.95.22-1.49a20.3 20.3 0 0 1 9.35-15.52l10.9 10.9a2807 2807 0 0 1 0-35.82"/>
  <path fill="#ababab" d="M33 62.18q0 .9.04 1.8v33.99l9.4-9.4A41.9 41.9 0 0 0 74.94 104a41.9 41.9 0 0 0 33.41-16.6l-15.4-15.56a20.4 20.4 0 0 1-6.24 7c-2.7 2.1-6.5 3.82-11.77 3.82a4 4 0 0 1-1.5-.22 20.3 20.3 0 0 1-15.51-9.35l10.9-10.9c-13.81.05-29.41.09-35.83 0"/>
  <path fill="#a6a6a6" d="M40.08 120.24q-1.53 0-2.75.58a6 6 0 0 0-2.06 1.63 8 8 0 0 0-1.28 2.56q-.44 1.49-.44 3.34v3.55q0 1.86.44 3.36.45 1.5 1.27 2.55a5.6 5.6 0 0 0 4.6 2.19q1.49 0 2.6-.44a5 5 0 0 0 3.09-3.26q.42-1.17.5-2.67H43.6q-.09 1.16-.31 1.97c-.22.81-.37.98-.66 1.34q-.42.51-1.11.76a5 5 0 0 1-1.67.24q-1.05 0-1.8-.46a4 4 0 0 1-1.2-1.3 7 7 0 0 1-.66-1.91 13 13 0 0 1-.2-2.37v-3.58q0-1.36.24-2.47a6 6 0 0 1 .76-1.89 3.5 3.5 0 0 1 3.09-1.63q.89 0 1.52.26.63.25 1.05.8.43.53.65 1.34a10 10 0 0 1 .3 1.96h2.45a10 10 0 0 0-.49-2.76 6 6 0 0 0-1.18-2.03 5 5 0 0 0-1.83-1.24 7 7 0 0 0-2.47-.42m59.65 0q-1.53 0-2.75.58a6 6 0 0 0-2.06 1.63 8 8 0 0 0-1.28 2.56q-.44 1.49-.44 3.34v3.55q0 1.86.44 3.36.45 1.5 1.27 2.55a5.6 5.6 0 0 0 4.6 2.19 7 7 0 0 0 2.61-.44 5 5 0 0 0 3.08-3.26q.42-1.17.5-2.67h-2.44q-.1 1.16-.32 1.97c-.22.81-.37.98-.66 1.34q-.42.51-1.11.76-.67.24-1.66.24-1.05 0-1.8-.46a3.5 3.5 0 0 1-1.2-1.3 7 7 0 0 1-.66-1.91 13 13 0 0 1-.2-2.37v-3.58q0-1.36.24-2.47t.75-1.89a3.5 3.5 0 0 1 3.09-1.63q.89 0 1.52.26.63.25 1.06.8.42.53.64 1.34a10 10 0 0 1 .3 1.96h2.45a10 10 0 0 0-.49-2.76q-.42-1.2-1.17-2.03c-.75-.83-1.12-.96-1.84-1.24a7 7 0 0 0-2.47-.42M54 120.5l-6.2 19.24h2.49l1.5-5.02h6.5l1.51 5.02h2.48l-6.2-19.24zm10.9 0v19.24h2.42v-7.53h3.7q1.4 0 2.46-.39a4.7 4.7 0 0 0 2.9-2.96 8 8 0 0 0 .4-2.48q0-1.28-.39-2.35a4.9 4.9 0 0 0-2.9-3.1 7 7 0 0 0-2.46-.43zm13.72 0v2.1h5.05v17.14h2.42v-17.15h5.05v-2.09zm30.34 0v19.24h2.42v-8.9h7.74v8.9h2.43V120.5h-2.43v8.27h-7.74v-8.27zm21.76 0-6.2 19.24h2.49l1.49-5.02h6.5l1.52 5.02H139l-6.2-19.24zm-63.4 2.1h3.7a2.9 2.9 0 0 1 2.54 1.15q.41.54.6 1.23a5.4 5.4 0 0 1 0 2.93q-.19.68-.6 1.18-.39.49-1.03.77-.61.27-1.5.27h-3.71zm-12.29 1.29 2.63 8.74h-5.24zm76.72 0 2.63 8.74h-5.25zm-113.78 1.29q-.91 0-1.57.46t-1.09 1.26l-.04-1.46H13v14.3h2.34V129.5q.33-.9.94-1.44.62-.53 1.57-.53a5 5 0 0 1 1.06.1l-.02-2.28-.17-.05a3 3 0 0 0-.52-.1l-.23-.03zm7.86 0a6 6 0 0 0-1.97.36 4 4 0 0 0-1.7 1.17 6 6 0 0 0-1.17 2.12 10 10 0 0 0-.45 3.18v1.61q0 1.65.39 2.84a4.6 4.6 0 0 0 2.85 3.16 7 7 0 0 0 2.31.38 7 7 0 0 0 2.96-.66 5 5 0 0 0 1.68-1.48l-1.22-1.48a4 4 0 0 1-1.35 1.18 4 4 0 0 1-1.94.45 3 3 0 0 1-2.5-1.05q-.85-1.04-.85-3.34v-.33h7.98v-1.36q0-1.64-.28-2.9a6 6 0 0 0-.89-2.1 4 4 0 0 0-1.55-1.3q-.95-.45-2.3-.45m0 2q.76 0 1.27.29.5.27.79.77.3.51.43 1.2.15.69.19 1.53v.31h-5.63q.05-1.2.3-2c.25-.8.36-.94.61-1.25q.4-.47.91-.66a3 3 0 0 1 1.13-.18z"/>
</svg>
